# AST/ASF file generated using VICON BodyLanguage
# -----------------------------------------------
:version 1.10
:name VICON
:units
  mass 1.0
  length 0.45
  angle deg
:documentation
   .ast/.asf automatically generated from VICON data using
   VICON BodyBuilder and BodyLanguage model FoxedUp or BRILLIANT.MOD
:root
   order TX TY TZ RX RY RZ
   axis XYZ
   position 0 0 0  
   orientation 0 0 0 
:bonedata
  begin
     id 1 
     name lhipjoint
     direction 0.561001 -0.76473 0.316963 
     length 2.4722 
     axis 0 0 0  XYZ
  end
  begin
     id 2 
     name lfemur
     direction 0.34202 -0.939693 0  
     length 7.59403  
     axis 0 0 20  XYZ
    dof rx ry rz
    limits (-160.0 20.0)
           (-70.0 70.0)
           (-60.0 70.0)
  end
  begin
     id 3 
     name ltibia
     direction 0.34202 -0.939693 0   
     length 7.89655   
     axis 0 0 20   XYZ
    dof rx
    limits (-10.0 170.0)
  end
  begin
     id 4 
     name lfoot
     direction 0.061296 -0.168409 0.98381   
     length 2.73287   
     axis -90 7.62852e-016 20   XYZ
    dof rx rz
    limits (-45.0 90.0)
           (-70.0 20.0)
  end
  begin
     id 5 
     name ltoes
     direction 1.53547e-011 -4.21984e-011 1   
     length 1.37057   
     axis -90 7.62852e-016 20   XYZ
    dof rx
    limits (-90.0 20.0)
  end
  begin
     id 6 
     name rhipjoint
     direction -0.559611 -0.765599 0.317323   
     length 2.46939  
     axis 0 0 0  XYZ 
  end
  begin
     id 7 
     name rfemur
     direction -0.34202 -0.939693 0   
     length 7.53712   
     axis 0 0 -20   XYZ
    dof rx ry rz
    limits (-160.0 20.0)
           (-70.0 70.0)
           (-70.0 60.0)
  end
  begin
     id 8 
     name rtibia
     direction -0.34202 -0.939693 0   
     length 8.12549   
     axis 0 0 -20   XYZ
    dof rx
    limits (-10.0 170.0)
 end
 begin
     id 9 
     name rfoot
     direction -0.066984 -0.184037 0.980634   
     length 2.67541  
     axis -90 -7.62852e-016 -20   XYZ
    dof rx rz
    limits (-45.0 90.0)
           (-20.0 70.0)
  end
  begin
     id 10 
     name rtoes
     direction -1.53549e-011 -4.21786e-011 1   
     length 1.34085   
     axis -90 -7.62852e-016 -20   XYZ
    dof rx
    limits (-90.0 20.0)
  end
  begin
     id 11 
     name lowerback
     direction -0.0522728 0.992594 -0.109658   
     length 2.05633   
     axis 0 0 0   XYZ
    dof rx ry rz
    limits (-20.0 45.0)
           (-30.0 30.0)
           (-30.0 30.0)
  end
  begin
     id 12 
     name upperback
     direction 0.00589338 0.999977 0.00335704   
     length 2.05845   
     axis 0 0 0   XYZ
    dof rx ry rz
    limits (-20.0 45.0)
           (-30.0 30.0)
           (-30.0 30.0)
  end
  begin
     id 13 
     name thorax
     direction 0.0292928 0.998059 0.0549487   
     length 2.09281   
     axis 0 0 0   XYZ
    dof rx ry rz
    limits (-20.0 45.0)
           (-30.0 30.0)
           (-30.0 30.0)
  end
  begin
     id 14 
     name lowerneck
     direction 0.0356368 0.980775 0.191858   
     length 1.84767   
     axis 0 0 0   XYZ
    dof rx ry rz
    limits (-20.0 45.0)
           (-30.0 30.0)
           (-30.0 30.0)
  end
  begin
     id 15 
     name upperneck
     direction -0.0227605 0.98931 -0.14404   
     length 1.89582   
     axis 0 0 0   XYZ
    dof rx ry rz
    limits (-20.0 45.0)
           (-30.0 30.0)
           (-30.0 30.0)
  end
  begin
     id 16
     name head
     direction -0.00932985 0.997511 -0.0698904  
     length 1.90213  
     axis 0 0 0   XYZ
    dof rx ry rz
    limits (-20.0 45.0)
           (-30.0 30.0)
           (-30.0 30.0)
  end
  begin
     id 17 
     name lclavicle
     direction 0.873442 0.479511 0.0846686  
     length 3.41193  
     axis 0 0 0   XYZ
    dof ry rz
    limits (-20.0 10.0)
           (0.0 20.0)
  end
  begin
     id 18 
     name lhumerus
     direction 1 -4.4897e-011 -5.62117e-018   
     length 5.59864   
     axis 180 -30 -90   XYZ
    dof rx ry rz
    limits (-60.0 90.0)
           (-90.0 90.0)
           (-90.0 90.0)
  end
  begin
     id 19
     name lradius
     direction 1 -4.48966e-011 -6.26295e-027   
     length 3.59542   
     axis 180 -30 -90   XYZ
    dof rx
    limits (-10.0 170.0)
  end
  begin
     id 20
     name lwrist
     direction 1 -4.48947e-011 -1.74096e-026   
     length 1.79771   
     axis 1.04567e-014 90 90   XYZ
    dof ry
    limits (-180.0 0.0)
 end
  begin
     id 21 
     name lhand
     direction 1 -4.49085e-011 -3.48469e-026   
     length 0.572014   
     axis 2.22196e-014 90 90   XYZ
    dof rx rz
    limits (-90.0 90.0)
           (-45.0 45.0)
  end
  begin
     id 22 
     name lfingers
     direction 1 -4.48884e-011 -6.96135e-026   
     length 0.461173   
     axis 4.44383e-014 90 90   XYZ
    dof rx
    limits (0.0 90.0)
  end
  begin
     id 23
     name lthumb
     direction 0.707107 -6.34976e-011 0.707107   
     length 0.662154   
     axis -90 45 -5.4397e-014   XYZ
    dof rx rz
    limits (-45.0 45.0)
           (-45.0 45.0)
  end
  begin
     id 24 
     name rclavicle
     direction -0.890242 0.443271 0.104786   
     length 3.46753  
     axis 0 0 0   XYZ 
    dof ry rz
    limits (-10.0 20.0)
           (-20.0 0.0)
  end
  begin
     id 25 
     name rhumerus
     direction -1 -4.48963e-011 -5.41723e-018  
     length 5.8094   
     axis 180 30 90   XYZ
    dof rx ry rz
    limits (-90.0 60.0)
           (-90.0 90.0)
           (-90.0 90.0)
  end
  begin
     id 26 
     name rradius
     direction -1 -4.48958e-011 -6.51059e-027   
     length 3.66953   
     axis 180 30 90   XYZ
    dof rx
    limits (-10.0 170.0)
  end
  begin
     id 27 
     name rwrist
     direction -1 -4.48975e-011 -1.74124e-026   
     length 1.83476   
     axis 1.04567e-014 -90 -90   XYZ
    dof ry
    limits (-180.0 0.0)
  end
  begin
     id 28
     name rhand
     direction -1 -4.49013e-011 -3.48326e-026   
     length 0.57843   
     axis 2.22196e-014 -90 -90   XYZ
    dof rx rz
    limits (-90.0 90.0)
           (-45.0 45.0)
  end
  begin
     id 29
     name rfingers
     direction -1 -4.49023e-011 -6.9669e-026   
     length 0.466345   
     axis 4.44383e-014 -90 -90   XYZ
    dof rx
    limits (0.0 90.0)
  end
  begin
     id 30
     name rthumb
     direction -0.707107 -6.34926e-011 0.707107   
     length 0.669581   
     axis -90 -45 5.4397e-014   XYZ
    dof rx rz
    limits (-45.0 45.0)
           (-45.0 45.0)
  end
:hierarchy
  begin
    root lhipjoint rhipjoint lowerback
    lhipjoint lfemur
    lfemur ltibia
    ltibia lfoot
    lfoot ltoes
    rhipjoint rfemur
    rfemur rtibia
    rtibia rfoot
    rfoot rtoes
    lowerback upperback
    upperback thorax
    thorax lowerneck lclavicle rclavicle
    lowerneck upperneck
    upperneck head
    lclavicle lhumerus
    lhumerus lradius
    lradius lwrist
    lwrist lhand lthumb
    lhand lfingers
    rclavicle rhumerus
    rhumerus rradius
    rradius rwrist
    rwrist rhand rthumb
    rhand rfingers
  end

#!OML:ASF H:\SkateBoarding\Project 1\Capture day 1\Session 1\Skater.ASF
:FULLY-SPECIFIED
:DEGREES
179
root 5.49743 18.7475 16.3067 2.21855 73.1225 -12.3393
lowerback 20.7874 -3.14026 -5.30488
upperback 2.13252 -5.17676 0.181165
thorax -8.77888 -2.21901 4.62609
lowerneck -19.758 -9.03318 -3.51911
upperneck 25.6789 -14.7387 10.6658
head 13.0363 -5.41321 2.0959
rclavicle -5.00937e-014 6.36111e-015
rhumerus -38.2366 9.48385 -90.4401
rradius 67.3705
rwrist -19.245
rhand -34.2471 -3.71524
rfingers 7.12502
rthumb -7.41812 -33.5652
lclavicle -5.00937e-014 6.36111e-015
lhumerus -15.4118 -34.2822 81.762
lradius 64.5189
lwrist 30.1917
lhand -23.0496 6.64012
lfingers 7.12502
lthumb 3.39522 36.5928
rfemur -45.8823 3.91022 20.054
rtibia 63.5442
rfoot -25.7749 13.5666
rtoes -6.53004
lfemur -39.6468 -2.75202 -6.754
ltibia 66.5307
lfoot -45.1516 3.33237
ltoes -22.4727
180
root 5.45488 18.6339 16.5714 2.40856 73.2841 -12.5393
lowerback 20.9286 -3.08666 -5.14212
upperback 2.16441 -5.07203 0.190515
thorax -8.84496 -2.17077 4.52676
lowerneck -19.6793 -9.19526 -3.62137
upperneck 25.2968 -14.9715 10.9313
head 12.9228 -5.51589 2.16637
rclavicle -2.22639e-014 1.27222e-014
rhumerus -37.9988 9.71583 -90.4563
rradius 67.5594
rwrist -19.242
rhand -34.522 -3.45679
rfingers 7.12502
rthumb -7.6834 -33.2972
lclavicle -2.22639e-014 1.27222e-014
lhumerus -14.9769 -34.3693 81.1441
lradius 64.984
lwrist 30.1988
lhand -22.8891 6.70675
lfingers 7.12502
lthumb 3.55024 36.6569
rfemur -47.3283 3.41783 20.0948
rtibia 65.0396
rfoot -25.6191 14.3846
rtoes -6.10408
lfemur -41.05 -2.62201 -6.56661
ltibia 68.0381
lfoot -45.5272 2.63087
ltoes -22.2574
181
root 5.41054 18.5129 16.8332 2.61628 73.3343 -12.7013
lowerback 21.1097 -2.98188 -5.00582
upperback 2.21428 -4.90409 0.224411
thorax -8.91408 -2.09095 4.454
lowerneck -19.6489 -9.38699 -3.81438
upperneck 24.9208 -15.2202 11.203
head 12.8333 -5.63175 2.248
rclavicle 2.3059e-014 0
rhumerus -37.6735 10.0134 -90.3225
rradius 67.7606
rwrist -19.1614
rhand -34.5583 -3.51138
rfingers 7.12502
rthumb -7.7185 -33.3505
lclavicle 2.3059e-014 0
lhumerus -14.4707 -34.3992 80.5401
lradius 65.439
lwrist 30.174
lhand -22.8097 6.78581
lfingers 7.12502
lthumb 3.62691 36.7347
rfemur -48.8779 2.93088 20.1477
rtibia 66.6423
rfoot -25.3766 15.141
rtoes -5.82648
lfemur -42.4182 -2.40066 -6.36839
ltibia 69.5749
lfoot -45.8855 1.73326
ltoes -22.0773
182
root 5.3655 18.387 17.094 3.09213 73.3253 -12.6068
lowerback 21.2629 -2.85934 -4.99814
upperback 2.27225 -4.73984 0.262915
thorax -8.9468 -2.01 4.45646
lowerneck -19.7473 -9.52878 -3.86775
upperneck 24.5766 -15.4046 11.3395
head 12.7513 -5.7169 2.26395
rclavicle -7.15625e-015 2.22639e-014
rhumerus -37.286 10.3458 -90.1858
rradius 67.9507
rwrist -19.1447
rhand -34.5843 -3.29892
rfingers 7.12502
rthumb -7.74351 -33.1371
lclavicle -7.15625e-015 2.22639e-014
lhumerus -13.9825 -34.3473 79.9185
lradius 65.9587
lwrist 30.155
lhand -22.7749 6.83886
lfingers 7.12502
lthumb 3.66045 36.7872
rfemur -50.5186 2.42836 20.1611
rtibia 68.2903
rfoot -25.1656 15.6712
rtoes -5.85515
lfemur -43.8174 -2.13698 -6.2506
ltibia 71.1163
lfoot -46.2207 0.848311
ltoes -21.687
183
root 5.32163 18.2604 17.3605 3.38306 73.2318 -12.5752
lowerback 21.4917 -2.70845 -5.02577
upperback 2.37644 -4.54694 0.297708
thorax -8.96939 -1.91442 4.46953
lowerneck -19.8935 -9.64757 -3.93098
upperneck 24.2694 -15.5576 11.4778
head 12.6929 -5.78472 2.28655
rclavicle 8.74653e-015 -4.77083e-015
rhumerus -36.8552 10.7286 -90.0838
rradius 68.0987
rwrist -19.0394
rhand -34.7478 -3.17569
rfingers 7.12502
rthumb -7.90136 -33.008
lclavicle 8.74653e-015 -4.77083e-015
lhumerus -13.5006 -34.2436 79.2612
lradius 66.4934
lwrist 30.1281
lhand -22.6557 6.93325
lfingers 7.12502
lthumb 3.77556 36.8796
rfemur -51.9875 2.01979 20.2681
rtibia 69.918
rfoot -25.13 16.1003
rtoes -6.25527
lfemur -45.0478 -1.70534 -6.14056
ltibia 72.7011
lfoot -46.5325 0.124173
ltoes -21.4205
184
root 5.28525 18.1472 17.6531 3.46272 73.1823 -12.5133
lowerback 21.8602 -2.48798 -5.40936
upperback 2.57024 -4.33805 0.415456
thorax -8.93454 -1.79919 4.77544
lowerneck -19.9511 -9.78289 -3.98536
upperneck 23.926 -15.7171 11.5713
head 12.5972 -5.86706 2.29278
rclavicle 3.10104e-014 1.11319e-014
rhumerus -36.3439 10.9947 -89.9042
rradius 68.1969
rwrist -18.8726
rhand -34.7839 -2.96793
rfingers 7.12502
rthumb -7.93618 -32.7989
lclavicle 3.10104e-014 1.11319e-014
lhumerus -13.0479 -34.1625 78.6043
lradius 67.0712
lwrist 30.1721
lhand -22.5696 6.938
lfingers 7.12502
lthumb 3.8587 36.8828
rfemur -52.9695 1.76622 20.449
rtibia 71.428
rfoot -25.4795 16.5115
rtoes -6.73702
lfemur -45.8735 -1.17972 -5.99567
ltibia 74.2221
lfoot -46.8362 -0.77318
ltoes -21.3209
185
root 5.24003 18.0111 17.9036 3.64728 72.947 -12.7724
lowerback 21.9308 -2.36758 -5.19787
upperback 2.62604 -4.12796 0.435582
thorax -8.9482 -1.70586 4.6222
lowerneck -19.9628 -9.86788 -4.02978
upperneck 23.466 -15.8234 11.7767
head 12.454 -5.91965 2.3503
rclavicle -1.07344e-013 -7.95139e-015
rhumerus -35.8008 11.3651 -89.7606
rradius 68.2705
rwrist -18.7782
rhand -34.807 -2.61363
rfingers 7.12502
rthumb -7.95848 -32.4438
lclavicle -1.07344e-013 -7.95139e-015
lhumerus -12.6525 -34.039 77.8932
lradius 67.6963
lwrist 30.2689
lhand -22.4988 6.95411
lfingers 7.12502
lthumb 3.92708 36.8977
rfemur -54.592 1.42269 20.6049
rtibia 72.8971
rfoot -25.472 17.0424
rtoes -7.16047
lfemur -47.4335 -0.53702 -5.90494
ltibia 75.9424
lfoot -47.0503 -0.935308
ltoes -21.5773
186
root 5.19854 17.8819 18.1632 3.78376 72.732 -12.9939
lowerback 22.0499 -2.21606 -5.17387
upperback 2.72702 -3.91204 0.538437
thorax -8.91719 -1.60366 4.66535
lowerneck -20.1356 -9.94967 -4.0768
upperneck 23.1322 -15.8993 11.8372
head 12.3745 -5.96325 2.35478
rclavicle 4.13472e-014 -1.11319e-014
rhumerus -35.168 11.804 -89.4932
rradius 68.3383
rwrist -18.3584
rhand -34.5969 -2.68592
rfingers 7.12502
rthumb -7.75569 -32.5237
lclavicle 4.13472e-014 -1.11319e-014
lhumerus -12.2001 -33.8488 77.2378
lradius 68.2642
lwrist 30.3765
lhand -22.5886 6.98704
lfingers 7.12502
lthumb 3.84042 36.9322
rfemur -55.9571 1.20809 20.7368
rtibia 74.225
rfoot -25.554 17.789
rtoes -7.19272
lfemur -48.8369 0.176604 -5.85087
ltibia 77.6206
lfoot -47.3119 -1.07757
ltoes -22.1097
187
root 5.15907 17.7489 18.4218 3.65703 72.4313 -13.5077
lowerback 22.1514 -2.06708 -5.0853
upperback 2.8088 -3.68361 0.658232
thorax -8.90308 -1.49698 4.68634
lowerneck -20.1688 -10.0156 -4.08727
upperneck 22.717 -15.9521 11.9012
head 12.2308 -6.00459 2.36464
rclavicle 8.18993e-014 2.22639e-014
rhumerus -34.4988 12.2669 -89.2381
rradius 68.3141
rwrist -17.9655
rhand -34.4485 -2.59785
rfingers 7.12502
rthumb -7.61248 -32.4408
lclavicle 8.18993e-014 2.22639e-014
lhumerus -11.8916 -33.5678 76.578
lradius 68.9041
lwrist 30.4622
lhand -22.4489 7.09638
lfingers 7.12502
lthumb 3.97526 37.039
rfemur -57.2695 1.08734 20.9515
rtibia 75.4775
rfoot -25.6373 18.6998
rtoes -6.99886
lfemur -50.2331 1.00993 -5.72655
ltibia 79.3408
lfoot -47.687 -1.39928
ltoes -22.3
188
root 5.12163 17.6181 18.6822 3.76432 72.1658 -13.7983
lowerback 22.2096 -1.91492 -5.05403
upperback 2.90529 -3.46303 0.76368
thorax -8.84611 -1.39428 4.72275
lowerneck -20.2187 -10.1078 -4.20349
upperneck 22.257 -16.0427 12.1044
head 12.103 -6.05578 2.43357
rclavicle -1.27222e-014 -4.69132e-014
rhumerus -33.7831 12.7298 -88.9871
rradius 68.297
rwrist -17.8309
rhand -34.574 -2.35049
rfingers 7.12502
rthumb -7.73357 -32.1891
lclavicle -1.27222e-014 -4.69132e-014
lhumerus -11.5247 -33.3388 75.8999
lradius 69.5155
lwrist 30.582
lhand -22.6215 7.23927
lfingers 7.12502
lthumb 3.80865 37.185
rfemur -58.5732 1.00233 21.0329
rtibia 76.6714
rfoot -25.7195 19.6096
rtoes -6.90466
lfemur -51.62 1.78582 -5.68783
ltibia 80.9963
lfoot -48.1133 -1.66867
ltoes -22.7082
189
root 5.0858 17.4795 18.9342 3.90554 71.8549 -14.0819
lowerback 22.2745 -1.78114 -4.87796
upperback 2.97076 -3.24131 0.802234
thorax -8.84073 -1.29462 4.60375
lowerneck -20.2141 -10.178 -4.16317
upperneck 21.7948 -16.1306 12.2457
head 11.9442 -6.10318 2.45859
rclavicle 2.54444e-014 -2.3059e-014
rhumerus -33.0613 13.13 -88.7659
rradius 68.2493
rwrist -17.6375
rhand -34.5942 -2.12699
rfingers 7.12502
rthumb -7.75314 -31.9649
lclavicle 2.54444e-014 -2.3059e-014
lhumerus -11.2015 -33.1431 75.1652
lradius 70.1108
lwrist 30.7009
lhand -22.4335 7.3166
lfingers 7.12502
lthumb 3.99019 37.259
rfemur -59.9244 0.90491 21.0644
rtibia 77.8703
rfoot -25.6563 20.7126
rtoes -6.25093
lfemur -53.048 2.58162 -5.70596
ltibia 82.6467
lfoot -48.5282 -1.99115
ltoes -22.9378
190
root 5.05066 17.3421 19.1843 4.14284 71.5742 -14.1916
lowerback 22.3711 -1.63094 -4.85852
upperback 3.09375 -3.02362 0.931578
thorax -8.77248 -1.19267 4.6746
lowerneck -20.2658 -10.2955 -4.39545
upperneck 21.3072 -16.232 12.5106
head 11.827 -6.16308 2.56486
rclavicle -1.82882e-014 -3.10104e-014
rhumerus -32.1792 13.6415 -88.3284
rradius 68.0987
rwrist -17.4293
rhand -35.7527 -2.151
rfingers 7.12502
rthumb -8.87113 -31.9445
lclavicle -1.82882e-014 -3.10104e-014
lhumerus -10.8282 -32.7428 74.6209
lradius 70.6063
lwrist 30.7036
lhand -22.691 7.40072
lfingers 7.12502
lthumb 3.74147 37.3476
rfemur -61.2417 0.779907 21.007
rtibia 79.0996
rfoot -25.4103 21.7874
rtoes -5.18743
lfemur -54.4207 3.26175 -5.79557
ltibia 84.2873
lfoot -48.989 -2.25904
ltoes -23.3206
191
root 5.01723 17.2084 19.4614 4.39223 71.4761 -14.2119
lowerback 22.545 -1.49471 -5.10287
upperback 3.20631 -2.8884 1.08491
thorax -8.73284 -1.1193 4.95067
lowerneck -20.3493 -10.3814 -4.47368
upperneck 20.919 -16.3191 12.6693
head 11.7283 -6.20948 2.61105
rclavicle -2.94201e-014 -9.54166e-015
rhumerus -31.4351 14.3214 -87.8289
rradius 68.0956
rwrist -17.4482
rhand -35.5271 -1.8567
rfingers 7.12502
rthumb -8.65345 -31.6593
lclavicle -2.94201e-014 -9.54166e-015
lhumerus -10.6187 -32.4362 73.9601
lradius 71.2292
lwrist 30.8472
lhand -22.6754 7.32759
lfingers 7.12502
lthumb 3.75658 37.2742
rfemur -62.4454 0.688428 20.9987
rtibia 80.4027
rfoot -25.4966 22.6007
rtoes -4.66363
lfemur -55.63 3.90697 -5.81628
ltibia 85.8668
lfoot -49.4375 -2.97927
ltoes -23.4075
192
root 4.98047 17.0621 19.6964 4.55693 71.1789 -14.3669
lowerback 22.8506 -1.38021 -4.8071
upperback 3.26092 -2.67476 1.1006
thorax -8.87358 -1.02029 4.75075
lowerneck -20.4028 -10.5053 -4.55562
upperneck 20.4989 -16.4853 12.9469
head 11.6349 -6.27983 2.68631
rclavicle -4.77083e-014 -3.73715e-014
rhumerus -30.6498 14.6596 -87.4651
rradius 67.9889
rwrist -17.3279
rhand -35.6063 -1.63526
rfingers 7.12502
rthumb -8.72987 -31.4347
lclavicle -4.77083e-014 -3.73715e-014
lhumerus -10.3507 -32.2283 73.2826
lradius 71.8062
lwrist 30.9328
lhand -22.7997 7.37404
lfingers 7.12502
lthumb 3.63652 37.3228
rfemur -63.9428 0.474655 20.909
rtibia 81.787
rfoot -25.0756 23.3862
rtoes -4.21898
lfemur -57.1032 4.52244 -5.97822
ltibia 87.5883
lfoot -49.8058 -2.9103
ltoes -24.0434
193
root 4.93967 16.9032 19.9211 4.71808 70.9712 -14.6221
lowerback 23.1466 -1.34861 -4.37083
upperback 3.27527 -2.53364 1.12632
thorax -9.05005 -0.959286 4.50138
lowerneck -20.5421 -10.6008 -4.55574
upperneck 20.1413 -16.6057 13.0838
head 11.5543 -6.33327 2.70393
rclavicle -9.54166e-015 -4.77083e-015
rhumerus -29.7862 14.992 -87.0646
rradius 67.8089
rwrist -17.1489
rhand -35.6502 -1.49262
rfingers 7.12502
rthumb -8.77228 -31.2903
lclavicle -9.54166e-015 -4.77083e-015
lhumerus -10.1568 -31.9964 72.632
lradius 72.4062
lwrist 31.0719
lhand -22.9146 7.42778
lfingers 7.12502
lthumb 3.5256 37.3784
rfemur -65.6943 0.0549791 20.8964
rtibia 83.2657
rfoot -24.6193 23.9333
rtoes -4.22982
lfemur -58.8517 4.98347 -6.11104
ltibia 89.3863
lfoot -50.0794 -3.24486
ltoes -23.7543
